<?xml version="1.0" standalone="no"?>
<svg xmlns:xlink="http://www.w3.org/1999/xlink" id="wave" style="transform:rotate(180deg); transition: 0.3s" viewBox="0 0 1440 100" version="1.1" xmlns="http://www.w3.org/2000/svg"><defs><linearGradient id="sw-gradient-0" x1="0" x2="0" y1="1" y2="0"><stop stop-color="rgba(255, 249, 234, 1)" offset="0%"/><stop stop-color="rgba(255, 249, 234, 1)" offset="100%"/></linearGradient></defs><path style="transform:translate(0, 0px); opacity:1" fill="url(#sw-gradient-0)" d="M0,10L26.7,21.7C53.3,33,107,57,160,56.7C213.3,57,267,33,320,35C373.3,37,427,63,480,65C533.3,67,587,43,640,43.3C693.3,43,747,67,800,65C853.3,63,907,37,960,26.7C1013.3,17,1067,23,1120,35C1173.3,47,1227,63,1280,60C1333.3,57,1387,33,1440,28.3C1493.3,23,1547,37,1600,43.3C1653.3,50,1707,50,1760,46.7C1813.3,43,1867,37,1920,41.7C1973.3,47,2027,63,2080,58.3C2133.3,53,2187,27,2240,28.3C2293.3,30,2347,60,2400,63.3C2453.3,67,2507,43,2560,30C2613.3,17,2667,13,2720,13.3C2773.3,13,2827,17,2880,28.3C2933.3,40,2987,60,3040,60C3093.3,60,3147,40,3200,26.7C3253.3,13,3307,7,3360,15C3413.3,23,3467,47,3520,48.3C3573.3,50,3627,30,3680,23.3C3733.3,17,3787,23,3813,26.7L3840,30L3840,100L3813.3,100C3786.7,100,3733,100,3680,100C3626.7,100,3573,100,3520,100C3466.7,100,3413,100,3360,100C3306.7,100,3253,100,3200,100C3146.7,100,3093,100,3040,100C2986.7,100,2933,100,2880,100C2826.7,100,2773,100,2720,100C2666.7,100,2613,100,2560,100C2506.7,100,2453,100,2400,100C2346.7,100,2293,100,2240,100C2186.7,100,2133,100,2080,100C2026.7,100,1973,100,1920,100C1866.7,100,1813,100,1760,100C1706.7,100,1653,100,1600,100C1546.7,100,1493,100,1440,100C1386.7,100,1333,100,1280,100C1226.7,100,1173,100,1120,100C1066.7,100,1013,100,960,100C906.7,100,853,100,800,100C746.7,100,693,100,640,100C586.7,100,533,100,480,100C426.7,100,373,100,320,100C266.7,100,213,100,160,100C106.7,100,53,100,27,100L0,100Z"/></svg>